<svg width="1440" height="196" viewBox="0 0 1440 196" fill="none" xmlns="http://www.w3.org/2000/svg">
<rect width="1440" height="196" fill="#002529"/>
<g clip-path="url(#clip0_0_4494)">
<path opacity="0.6" d="M454.17 55.185C455.43 55.185 456.405 55.61 457.095 56.46C457.785 57.31 458.13 58.605 458.13 60.345C458.13 61.535 457.945 62.565 457.575 63.435C457.205 64.295 456.69 64.96 456.03 65.43C455.37 65.89 454.61 66.12 453.75 66.12C452.12 66.12 451.01 65.34 450.42 63.78L451.995 63.045C452.175 63.535 452.415 63.89 452.715 64.11C453.015 64.33 453.395 64.44 453.855 64.44C454.545 64.44 455.115 64.13 455.565 63.51C456.025 62.89 456.255 61.985 456.255 60.795C455.985 61.195 455.625 61.505 455.175 61.725C454.735 61.945 454.24 62.055 453.69 62.055C453.09 62.055 452.545 61.93 452.055 61.68C451.565 61.42 451.175 61.05 450.885 60.57C450.595 60.08 450.45 59.5 450.45 58.83C450.45 58.14 450.605 57.52 450.915 56.97C451.225 56.42 451.66 55.985 452.22 55.665C452.78 55.345 453.43 55.185 454.17 55.185ZM454.185 56.73C453.625 56.73 453.175 56.92 452.835 57.3C452.505 57.67 452.34 58.125 452.34 58.665C452.34 59.225 452.495 59.675 452.805 60.015C453.125 60.345 453.565 60.51 454.125 60.51C454.675 60.51 455.125 60.33 455.475 59.97C455.835 59.6 456.015 59.14 456.015 58.59C456.015 57.99 455.845 57.53 455.505 57.21C455.165 56.89 454.725 56.73 454.185 56.73ZM463.494 66.135C462.284 66.135 461.329 65.87 460.629 65.34C459.929 64.81 459.579 64.09 459.579 63.18C459.579 62.59 459.759 62.06 460.119 61.59C460.479 61.12 460.949 60.78 461.529 60.57C461.009 60.36 460.599 60.045 460.299 59.625C459.999 59.205 459.849 58.715 459.849 58.155C459.849 57.595 460.004 57.09 460.314 56.64C460.634 56.19 461.069 55.84 461.619 55.59C462.169 55.33 462.794 55.2 463.494 55.2C464.194 55.2 464.819 55.33 465.369 55.59C465.919 55.84 466.349 56.19 466.659 56.64C466.979 57.09 467.139 57.595 467.139 58.155C467.139 58.715 466.989 59.205 466.689 59.625C466.389 60.045 465.979 60.36 465.459 60.57C466.039 60.78 466.509 61.12 466.869 61.59C467.229 62.06 467.409 62.59 467.409 63.18C467.409 64.09 467.059 64.81 466.359 65.34C465.659 65.87 464.704 66.135 463.494 66.135ZM463.494 59.88C464.024 59.88 464.449 59.74 464.769 59.46C465.089 59.18 465.249 58.81 465.249 58.35C465.249 57.86 465.089 57.47 464.769 57.18C464.449 56.89 464.024 56.745 463.494 56.745C462.974 56.745 462.549 56.895 462.219 57.195C461.899 57.485 461.739 57.87 461.739 58.35C461.739 58.81 461.899 59.18 462.219 59.46C462.539 59.74 462.964 59.88 463.494 59.88ZM463.494 64.59C464.124 64.59 464.619 64.45 464.979 64.17C465.339 63.89 465.519 63.505 465.519 63.015C465.519 62.515 465.334 62.115 464.964 61.815C464.594 61.505 464.104 61.35 463.494 61.35C462.884 61.35 462.394 61.505 462.024 61.815C461.654 62.115 461.469 62.515 461.469 63.015C461.469 63.505 461.649 63.89 462.009 64.17C462.369 64.45 462.864 64.59 463.494 64.59ZM471.693 66H469.713L474.138 56.88H469.068V55.35H476.103V56.835L471.693 66ZM485.372 66V55.35H487.322V59.76H492.362V55.35H494.327V66H492.362V61.47H487.322V66H485.372ZM498.215 58.425V66H496.385V58.425H498.215ZM497.3 57.225C496.94 57.225 496.655 57.115 496.445 56.895C496.235 56.675 496.13 56.41 496.13 56.1C496.13 55.79 496.235 55.525 496.445 55.305C496.655 55.085 496.94 54.975 497.3 54.975C497.66 54.975 497.945 55.085 498.155 55.305C498.365 55.525 498.47 55.79 498.47 56.1C498.47 56.41 498.365 56.675 498.155 56.895C497.945 57.115 497.66 57.225 497.3 57.225ZM502.354 66.135C501.634 66.135 501.089 65.94 500.719 65.55C500.349 65.16 500.164 64.605 500.164 63.885V54.9H501.994V63.735C501.994 64.275 502.244 64.545 502.744 64.545C502.994 64.545 503.214 64.485 503.404 64.365L503.854 65.7C503.694 65.82 503.479 65.92 503.209 66C502.939 66.09 502.654 66.135 502.354 66.135ZM506.661 66.135C505.941 66.135 505.396 65.94 505.026 65.55C504.656 65.16 504.471 64.605 504.471 63.885V54.9H506.301V63.735C506.301 64.275 506.551 64.545 507.051 64.545C507.301 64.545 507.521 64.485 507.711 64.365L508.161 65.7C508.001 65.82 507.786 65.92 507.516 66C507.246 66.09 506.961 66.135 506.661 66.135ZM512.153 66.135C511.003 66.135 510.093 65.805 509.423 65.145C508.753 64.475 508.418 63.545 508.418 62.355C508.418 61.555 508.583 60.85 508.913 60.24C509.243 59.63 509.703 59.155 510.293 58.815C510.883 58.475 511.563 58.305 512.333 58.305C512.973 58.305 513.533 58.43 514.013 58.68C514.493 58.93 514.883 59.32 515.183 59.85L513.878 60.84C513.688 60.52 513.468 60.29 513.218 60.15C512.978 60.01 512.683 59.94 512.333 59.94C511.743 59.94 511.258 60.16 510.878 60.6C510.508 61.04 510.323 61.62 510.323 62.34C510.323 63.04 510.488 63.58 510.818 63.96C511.158 64.33 511.643 64.515 512.273 64.515C512.603 64.515 512.908 64.44 513.188 64.29C513.478 64.14 513.718 63.905 513.908 63.585L515.183 64.605C514.843 65.155 514.413 65.55 513.893 65.79C513.373 66.02 512.793 66.135 512.153 66.135ZM521.035 60.195C520.835 60.125 520.58 60.09 520.27 60.09C519.73 60.09 519.295 60.29 518.965 60.69C518.635 61.08 518.39 61.71 518.23 62.58C518.08 63.44 518.005 64.58 518.005 66H516.19V61.11L516.175 58.425H518.005L517.915 60.54C518.175 59.73 518.535 59.155 518.995 58.815C519.465 58.475 519.965 58.305 520.495 58.305C520.655 58.305 520.805 58.315 520.945 58.335C521.085 58.355 521.215 58.385 521.335 58.425L521.035 60.195ZM525.562 66.135C524.742 66.135 524.032 65.985 523.432 65.685C522.842 65.375 522.387 64.935 522.067 64.365C521.747 63.795 521.587 63.115 521.587 62.325C521.587 61.535 521.752 60.84 522.082 60.24C522.412 59.63 522.857 59.155 523.417 58.815C523.987 58.475 524.632 58.305 525.352 58.305C526.522 58.305 527.382 58.705 527.932 59.505C528.492 60.295 528.687 61.39 528.517 62.79H523.447C523.487 63.32 523.702 63.745 524.092 64.065C524.482 64.385 525.017 64.545 525.697 64.545C526.017 64.545 526.337 64.475 526.657 64.335C526.987 64.195 527.267 63.98 527.497 63.69L528.562 64.77C528.222 65.2 527.807 65.535 527.317 65.775C526.837 66.015 526.252 66.135 525.562 66.135ZM525.382 59.685C524.872 59.685 524.452 59.845 524.122 60.165C523.792 60.485 523.582 60.915 523.492 61.455H526.942C526.962 60.835 526.827 60.385 526.537 60.105C526.247 59.825 525.862 59.685 525.382 59.685ZM532.746 66.135C531.706 66.135 530.911 65.94 530.361 65.55C529.811 65.15 529.491 64.595 529.401 63.885L530.946 63.51C531.006 63.89 531.181 64.185 531.471 64.395C531.761 64.595 532.176 64.695 532.716 64.695C533.156 64.695 533.486 64.625 533.706 64.485C533.936 64.345 534.051 64.155 534.051 63.915C534.051 63.675 533.926 63.49 533.676 63.36C533.436 63.23 533.061 63.115 532.551 63.015C531.981 62.905 531.491 62.765 531.081 62.595C530.681 62.425 530.371 62.195 530.151 61.905C529.941 61.605 529.836 61.215 529.836 60.735C529.836 60.275 529.966 59.865 530.226 59.505C530.486 59.135 530.841 58.845 531.291 58.635C531.751 58.415 532.276 58.305 532.866 58.305C533.656 58.305 534.301 58.49 534.801 58.86C535.311 59.23 535.616 59.705 535.716 60.285L534.201 60.69C534.131 60.4 533.981 60.175 533.751 60.015C533.521 59.845 533.211 59.76 532.821 59.76C532.431 59.76 532.131 59.84 531.921 60C531.721 60.16 531.621 60.36 531.621 60.6C531.621 60.84 531.736 61.03 531.966 61.17C532.206 61.3 532.611 61.425 533.181 61.545C533.711 61.655 534.171 61.795 534.561 61.965C534.961 62.125 535.276 62.35 535.506 62.64C535.736 62.92 535.851 63.3 535.851 63.78C535.851 64.25 535.716 64.665 535.446 65.025C535.186 65.375 534.821 65.65 534.351 65.85C533.881 66.04 533.346 66.135 532.746 66.135ZM540.23 66.135C539.32 66.135 538.61 65.885 538.1 65.385C537.6 64.885 537.355 64.23 537.365 63.42L537.425 59.955H536.135V58.425H537.455L537.47 56.865H539.3L539.27 58.425H541.745V59.955H539.255L539.21 63.225C539.2 63.635 539.3 63.96 539.51 64.2C539.73 64.43 540.055 64.545 540.485 64.545C540.715 64.545 540.93 64.515 541.13 64.455C541.33 64.395 541.54 64.285 541.76 64.125L542.3 65.535C542.07 65.735 541.775 65.885 541.415 65.985C541.055 66.085 540.66 66.135 540.23 66.135ZM546.866 66V55.35H548.816V64.29H553.556L553.421 66H546.866ZM561.429 58.455V66H559.569L559.629 64.68C559.359 65.14 559.004 65.5 558.564 65.76C558.134 66.01 557.639 66.135 557.079 66.135C556.419 66.135 555.859 65.985 555.399 65.685C554.939 65.375 554.589 64.95 554.349 64.41C554.109 63.87 553.989 63.25 553.989 62.55C553.989 61.71 554.154 60.975 554.484 60.345C554.814 59.705 555.264 59.205 555.834 58.845C556.414 58.485 557.064 58.305 557.784 58.305C558.264 58.305 558.689 58.41 559.059 58.62C559.429 58.82 559.714 59.09 559.914 59.43L560.094 58.455H561.429ZM557.919 59.925C557.299 59.925 556.804 60.16 556.434 60.63C556.064 61.1 555.879 61.715 555.879 62.475C555.879 63.125 556.019 63.63 556.299 63.99C556.579 64.35 556.964 64.53 557.454 64.53C557.854 64.53 558.214 64.415 558.534 64.185C558.864 63.955 559.124 63.635 559.314 63.225C559.504 62.815 559.599 62.345 559.599 61.815C559.599 61.225 559.449 60.765 559.149 60.435C558.849 60.095 558.439 59.925 557.919 59.925ZM563.372 66V58.425H565.202L565.112 60.33C565.402 59.68 565.797 59.18 566.297 58.83C566.797 58.48 567.367 58.305 568.007 58.305C568.857 58.305 569.497 58.6 569.927 59.19C570.367 59.77 570.582 60.605 570.572 61.695L570.542 66H568.712L568.742 61.845C568.752 61.255 568.657 60.805 568.457 60.495C568.267 60.175 567.957 60.015 567.527 60.015C567.197 60.015 566.892 60.11 566.612 60.3C566.332 60.49 566.087 60.815 565.877 61.275C565.667 61.725 565.502 62.34 565.382 63.12C565.262 63.89 565.197 64.85 565.187 66H563.372ZM576.026 66.135C575.206 66.135 574.496 65.985 573.896 65.685C573.306 65.375 572.851 64.935 572.531 64.365C572.211 63.795 572.051 63.115 572.051 62.325C572.051 61.535 572.216 60.84 572.546 60.24C572.876 59.63 573.321 59.155 573.881 58.815C574.451 58.475 575.096 58.305 575.816 58.305C576.986 58.305 577.846 58.705 578.396 59.505C578.956 60.295 579.151 61.39 578.981 62.79H573.911C573.951 63.32 574.166 63.745 574.556 64.065C574.946 64.385 575.481 64.545 576.161 64.545C576.481 64.545 576.801 64.475 577.121 64.335C577.451 64.195 577.731 63.98 577.961 63.69L579.026 64.77C578.686 65.2 578.271 65.535 577.781 65.775C577.301 66.015 576.716 66.135 576.026 66.135ZM575.846 59.685C575.336 59.685 574.916 59.845 574.586 60.165C574.256 60.485 574.046 60.915 573.956 61.455H577.406C577.426 60.835 577.291 60.385 577.001 60.105C576.711 59.825 576.326 59.685 575.846 59.685ZM451.095 91V80.35H453.045V91H451.095ZM459.981 85.195C459.781 85.125 459.526 85.09 459.216 85.09C458.676 85.09 458.241 85.29 457.911 85.69C457.581 86.08 457.336 86.71 457.176 87.58C457.026 88.44 456.951 89.58 456.951 91H455.136V86.11L455.121 83.425H456.951L456.861 85.54C457.121 84.73 457.481 84.155 457.941 83.815C458.411 83.475 458.911 83.305 459.441 83.305C459.601 83.305 459.751 83.315 459.891 83.335C460.031 83.355 460.161 83.385 460.281 83.425L459.981 85.195ZM466.874 83.425H468.704L465.869 91H463.259L460.859 83.425H462.839L464.669 89.515L466.874 83.425ZM471.335 83.425V91H469.505V83.425H471.335ZM470.42 82.225C470.06 82.225 469.775 82.115 469.565 81.895C469.355 81.675 469.25 81.41 469.25 81.1C469.25 80.79 469.355 80.525 469.565 80.305C469.775 80.085 470.06 79.975 470.42 79.975C470.78 79.975 471.065 80.085 471.275 80.305C471.485 80.525 471.59 80.79 471.59 81.1C471.59 81.41 471.485 81.675 471.275 81.895C471.065 82.115 470.78 82.225 470.42 82.225ZM473.285 91V83.425H475.115L475.025 85.33C475.315 84.68 475.71 84.18 476.21 83.83C476.71 83.48 477.28 83.305 477.92 83.305C478.77 83.305 479.41 83.6 479.84 84.19C480.28 84.77 480.495 85.605 480.485 86.695L480.455 91H478.625L478.655 86.845C478.665 86.255 478.57 85.805 478.37 85.495C478.18 85.175 477.87 85.015 477.44 85.015C477.11 85.015 476.805 85.11 476.525 85.3C476.245 85.49 476 85.815 475.79 86.275C475.58 86.725 475.415 87.34 475.295 88.12C475.175 88.89 475.11 89.85 475.1 91H473.285ZM485.938 91.135C485.118 91.135 484.408 90.985 483.808 90.685C483.218 90.375 482.763 89.935 482.443 89.365C482.123 88.795 481.963 88.115 481.963 87.325C481.963 86.535 482.128 85.84 482.458 85.24C482.788 84.63 483.233 84.155 483.793 83.815C484.363 83.475 485.008 83.305 485.728 83.305C486.898 83.305 487.758 83.705 488.308 84.505C488.868 85.295 489.063 86.39 488.893 87.79H483.823C483.863 88.32 484.078 88.745 484.468 89.065C484.858 89.385 485.393 89.545 486.073 89.545C486.393 89.545 486.713 89.475 487.033 89.335C487.363 89.195 487.643 88.98 487.873 88.69L488.938 89.77C488.598 90.2 488.183 90.535 487.693 90.775C487.213 91.015 486.628 91.135 485.938 91.135ZM485.758 84.685C485.248 84.685 484.828 84.845 484.498 85.165C484.168 85.485 483.958 85.915 483.868 86.455H487.318C487.338 85.835 487.203 85.385 486.913 85.105C486.623 84.825 486.238 84.685 485.758 84.685ZM489.886 93.28C490.026 92.95 490.131 92.645 490.201 92.365C490.281 92.085 490.321 91.83 490.321 91.6C490.321 91.34 490.286 91.115 490.216 90.925C490.146 90.735 490.076 90.55 490.006 90.37C489.946 90.19 489.916 89.985 489.916 89.755C489.916 89.445 490.026 89.185 490.246 88.975C490.476 88.765 490.776 88.66 491.146 88.66C491.536 88.66 491.836 88.78 492.046 89.02C492.266 89.26 492.376 89.59 492.376 90.01C492.376 90.32 492.306 90.67 492.166 91.06C492.036 91.46 491.851 91.85 491.611 92.23C491.381 92.62 491.121 92.97 490.831 93.28H489.886ZM506.678 88.93C506.258 89.64 505.678 90.185 504.938 90.565C504.198 90.945 503.368 91.135 502.448 91.135C501.358 91.135 500.423 90.925 499.643 90.505C498.863 90.085 498.263 89.485 497.843 88.705C497.433 87.915 497.228 86.975 497.228 85.885C497.228 84.755 497.458 83.765 497.918 82.915C498.378 82.065 499.018 81.4 499.838 80.92C500.658 80.44 501.608 80.2 502.688 80.2C503.608 80.2 504.393 80.375 505.043 80.725C505.703 81.075 506.253 81.605 506.693 82.315L505.193 83.395C504.923 82.895 504.568 82.53 504.128 82.3C503.688 82.07 503.203 81.955 502.673 81.955C501.993 81.955 501.393 82.12 500.873 82.45C500.353 82.78 499.943 83.24 499.643 83.83C499.353 84.41 499.208 85.085 499.208 85.855C499.208 86.965 499.493 87.83 500.063 88.45C500.643 89.07 501.448 89.38 502.478 89.38C503.048 89.38 503.573 89.25 504.053 88.99C504.533 88.73 504.923 88.335 505.223 87.805L506.678 88.93ZM506.378 91L510.923 80.35H512.573L516.938 91H514.958L513.998 88.57H509.348L508.358 91H506.378ZM510.023 86.935H513.368L511.718 82.75L510.023 86.935ZM460.125 113.93C459.705 114.64 459.125 115.185 458.385 115.565C457.645 115.945 456.815 116.135 455.895 116.135C454.805 116.135 453.87 115.925 453.09 115.505C452.31 115.085 451.71 114.485 451.29 113.705C450.88 112.915 450.675 111.975 450.675 110.885C450.675 109.755 450.905 108.765 451.365 107.915C451.825 107.065 452.465 106.4 453.285 105.92C454.105 105.44 455.055 105.2 456.135 105.2C457.055 105.2 457.84 105.375 458.49 105.725C459.15 106.075 459.7 106.605 460.14 107.315L458.64 108.395C458.37 107.895 458.015 107.53 457.575 107.3C457.135 107.07 456.65 106.955 456.12 106.955C455.44 106.955 454.84 107.12 454.32 107.45C453.8 107.78 453.39 108.24 453.09 108.83C452.8 109.41 452.655 110.085 452.655 110.855C452.655 111.965 452.94 112.83 453.51 113.45C454.09 114.07 454.895 114.38 455.925 114.38C456.495 114.38 457.02 114.25 457.5 113.99C457.98 113.73 458.37 113.335 458.67 112.805L460.125 113.93ZM468.045 108.455V116H466.185L466.245 114.68C465.975 115.14 465.62 115.5 465.18 115.76C464.75 116.01 464.255 116.135 463.695 116.135C463.035 116.135 462.475 115.985 462.015 115.685C461.555 115.375 461.205 114.95 460.965 114.41C460.725 113.87 460.605 113.25 460.605 112.55C460.605 111.71 460.77 110.975 461.1 110.345C461.43 109.705 461.88 109.205 462.45 108.845C463.03 108.485 463.68 108.305 464.4 108.305C464.88 108.305 465.305 108.41 465.675 108.62C466.045 108.82 466.33 109.09 466.53 109.43L466.71 108.455H468.045ZM464.535 109.925C463.915 109.925 463.42 110.16 463.05 110.63C462.68 111.1 462.495 111.715 462.495 112.475C462.495 113.125 462.635 113.63 462.915 113.99C463.195 114.35 463.58 114.53 464.07 114.53C464.47 114.53 464.83 114.415 465.15 114.185C465.48 113.955 465.74 113.635 465.93 113.225C466.12 112.815 466.215 112.345 466.215 111.815C466.215 111.225 466.065 110.765 465.765 110.435C465.465 110.095 465.055 109.925 464.535 109.925ZM472.179 116.135C471.459 116.135 470.914 115.94 470.544 115.55C470.174 115.16 469.989 114.605 469.989 113.885V104.9H471.819V113.735C471.819 114.275 472.069 114.545 472.569 114.545C472.819 114.545 473.039 114.485 473.229 114.365L473.679 115.7C473.519 115.82 473.304 115.92 473.034 116C472.764 116.09 472.479 116.135 472.179 116.135ZM476.199 108.425V116H474.369V108.425H476.199ZM475.284 107.225C474.924 107.225 474.639 107.115 474.429 106.895C474.219 106.675 474.114 106.41 474.114 106.1C474.114 105.79 474.219 105.525 474.429 105.305C474.639 105.085 474.924 104.975 475.284 104.975C475.644 104.975 475.929 105.085 476.139 105.305C476.349 105.525 476.454 105.79 476.454 106.1C476.454 106.41 476.349 106.675 476.139 106.895C475.929 107.115 475.644 107.225 475.284 107.225ZM478.523 116V109.955H477.083V108.425H478.523V108.02C478.523 107.35 478.658 106.775 478.928 106.295C479.208 105.805 479.583 105.425 480.053 105.155C480.533 104.885 481.083 104.75 481.703 104.75C482.443 104.75 483.033 104.935 483.473 105.305C483.923 105.665 484.193 106.21 484.283 106.94L482.723 107.12C482.693 106.86 482.583 106.66 482.393 106.52C482.203 106.37 481.958 106.295 481.658 106.295C481.248 106.295 480.923 106.43 480.683 106.7C480.453 106.97 480.338 107.355 480.338 107.855V108.425H482.588V109.955H480.368V116H478.523ZM486.801 108.305C487.931 108.305 488.816 108.645 489.456 109.325C490.106 109.995 490.431 110.905 490.431 112.055C490.431 112.835 490.266 113.535 489.936 114.155C489.616 114.765 489.161 115.25 488.571 115.61C487.981 115.96 487.296 116.135 486.516 116.135C485.386 116.135 484.496 115.8 483.846 115.13C483.206 114.46 482.886 113.545 482.886 112.385C482.886 111.605 483.046 110.91 483.366 110.3C483.696 109.68 484.151 109.195 484.731 108.845C485.321 108.485 486.011 108.305 486.801 108.305ZM486.576 114.53C487.166 114.53 487.641 114.305 488.001 113.855C488.361 113.405 488.541 112.805 488.541 112.055C488.541 111.375 488.381 110.85 488.061 110.48C487.751 110.11 487.321 109.925 486.771 109.925C486.161 109.925 485.676 110.15 485.316 110.6C484.956 111.05 484.776 111.645 484.776 112.385C484.776 113.065 484.931 113.595 485.241 113.975C485.561 114.345 486.006 114.53 486.576 114.53ZM496.88 110.195C496.68 110.125 496.425 110.09 496.115 110.09C495.575 110.09 495.14 110.29 494.81 110.69C494.48 111.08 494.235 111.71 494.075 112.58C493.925 113.44 493.85 114.58 493.85 116H492.035V111.11L492.02 108.425H493.85L493.76 110.54C494.02 109.73 494.38 109.155 494.84 108.815C495.31 108.475 495.81 108.305 496.34 108.305C496.5 108.305 496.65 108.315 496.79 108.335C496.93 108.355 497.06 108.385 497.18 108.425L496.88 110.195ZM498.143 116V108.425H499.973L499.883 110.33C500.173 109.68 500.568 109.18 501.068 108.83C501.568 108.48 502.138 108.305 502.778 108.305C503.628 108.305 504.268 108.6 504.698 109.19C505.138 109.77 505.353 110.605 505.343 111.695L505.313 116H503.483L503.513 111.845C503.523 111.255 503.428 110.805 503.228 110.495C503.038 110.175 502.728 110.015 502.298 110.015C501.968 110.015 501.663 110.11 501.383 110.3C501.103 110.49 500.858 110.815 500.648 111.275C500.438 111.725 500.273 112.34 500.153 113.12C500.033 113.89 499.968 114.85 499.958 116H498.143ZM509.011 108.425V116H507.181V108.425H509.011ZM508.096 107.225C507.736 107.225 507.451 107.115 507.241 106.895C507.031 106.675 506.926 106.41 506.926 106.1C506.926 105.79 507.031 105.525 507.241 105.305C507.451 105.085 507.736 104.975 508.096 104.975C508.456 104.975 508.741 105.085 508.951 105.305C509.161 105.525 509.266 105.79 509.266 106.1C509.266 106.41 509.161 106.675 508.951 106.895C508.741 107.115 508.456 107.225 508.096 107.225ZM518.04 108.455V116H516.18L516.24 114.68C515.97 115.14 515.615 115.5 515.175 115.76C514.745 116.01 514.25 116.135 513.69 116.135C513.03 116.135 512.47 115.985 512.01 115.685C511.55 115.375 511.2 114.95 510.96 114.41C510.72 113.87 510.6 113.25 510.6 112.55C510.6 111.71 510.765 110.975 511.095 110.345C511.425 109.705 511.875 109.205 512.445 108.845C513.025 108.485 513.675 108.305 514.395 108.305C514.875 108.305 515.3 108.41 515.67 108.62C516.04 108.82 516.325 109.09 516.525 109.43L516.705 108.455H518.04ZM514.53 109.925C513.91 109.925 513.415 110.16 513.045 110.63C512.675 111.1 512.49 111.715 512.49 112.475C512.49 113.125 512.63 113.63 512.91 113.99C513.19 114.35 513.575 114.53 514.065 114.53C514.465 114.53 514.825 114.415 515.145 114.185C515.475 113.955 515.735 113.635 515.925 113.225C516.115 112.815 516.21 112.345 516.21 111.815C516.21 111.225 516.06 110.765 515.76 110.435C515.46 110.095 515.05 109.925 514.53 109.925ZM526.826 105.185C528.086 105.185 529.061 105.61 529.751 106.46C530.441 107.31 530.786 108.605 530.786 110.345C530.786 111.535 530.601 112.565 530.231 113.435C529.861 114.295 529.346 114.96 528.686 115.43C528.026 115.89 527.266 116.12 526.406 116.12C524.776 116.12 523.666 115.34 523.076 113.78L524.651 113.045C524.831 113.535 525.071 113.89 525.371 114.11C525.671 114.33 526.051 114.44 526.511 114.44C527.201 114.44 527.771 114.13 528.221 113.51C528.681 112.89 528.911 111.985 528.911 110.795C528.641 111.195 528.281 111.505 527.831 111.725C527.391 111.945 526.896 112.055 526.346 112.055C525.746 112.055 525.201 111.93 524.711 111.68C524.221 111.42 523.831 111.05 523.541 110.57C523.251 110.08 523.106 109.5 523.106 108.83C523.106 108.14 523.261 107.52 523.571 106.97C523.881 106.42 524.316 105.985 524.876 105.665C525.436 105.345 526.086 105.185 526.826 105.185ZM526.841 106.73C526.281 106.73 525.831 106.92 525.491 107.3C525.161 107.67 524.996 108.125 524.996 108.665C524.996 109.225 525.151 109.675 525.461 110.015C525.781 110.345 526.221 110.51 526.781 110.51C527.331 110.51 527.781 110.33 528.131 109.97C528.491 109.6 528.671 109.14 528.671 108.59C528.671 107.99 528.501 107.53 528.161 107.21C527.821 106.89 527.381 106.73 526.841 106.73ZM532.805 116V114.725C533.975 113.835 534.905 113.015 535.595 112.265C536.295 111.505 536.795 110.81 537.095 110.18C537.405 109.55 537.56 108.98 537.56 108.47C537.56 107.97 537.415 107.58 537.125 107.3C536.845 107.02 536.465 106.88 535.985 106.88C535.445 106.88 534.995 107.03 534.635 107.33C534.285 107.63 534.02 108.05 533.84 108.59L532.445 107.855C532.685 107.075 533.135 106.44 533.795 105.95C534.455 105.45 535.245 105.2 536.165 105.2C536.825 105.2 537.4 105.325 537.89 105.575C538.38 105.825 538.76 106.18 539.03 106.64C539.31 107.1 539.45 107.645 539.45 108.275C539.45 109.245 539.13 110.235 538.49 111.245C537.85 112.255 536.765 113.33 535.235 114.47H539.72V116H532.805ZM544.35 116H542.37L546.795 106.88H541.725V105.35H548.76V106.835L544.35 116ZM551.229 116V114.47H553.629V107.84L551.769 109.115L550.869 107.78L554.454 105.35H555.519V114.47H557.784V116H551.229ZM563.958 116V113.255H559.203V111.95L564.483 105.32H565.788V111.74H567.288V113.255H565.788V116H563.958ZM561.168 111.74H563.958V108.215L561.168 111.74ZM460.125 138.93C459.705 139.64 459.125 140.185 458.385 140.565C457.645 140.945 456.815 141.135 455.895 141.135C454.805 141.135 453.87 140.925 453.09 140.505C452.31 140.085 451.71 139.485 451.29 138.705C450.88 137.915 450.675 136.975 450.675 135.885C450.675 134.755 450.905 133.765 451.365 132.915C451.825 132.065 452.465 131.4 453.285 130.92C454.105 130.44 455.055 130.2 456.135 130.2C457.055 130.2 457.84 130.375 458.49 130.725C459.15 131.075 459.7 131.605 460.14 132.315L458.64 133.395C458.37 132.895 458.015 132.53 457.575 132.3C457.135 132.07 456.65 131.955 456.12 131.955C455.44 131.955 454.84 132.12 454.32 132.45C453.8 132.78 453.39 133.24 453.09 133.83C452.8 134.41 452.655 135.085 452.655 135.855C452.655 136.965 452.94 137.83 453.51 138.45C454.09 139.07 454.895 139.38 455.925 139.38C456.495 139.38 457.02 139.25 457.5 138.99C457.98 138.73 458.37 138.335 458.67 137.805L460.125 138.93ZM468.045 133.455V141H466.185L466.245 139.68C465.975 140.14 465.62 140.5 465.18 140.76C464.75 141.01 464.255 141.135 463.695 141.135C463.035 141.135 462.475 140.985 462.015 140.685C461.555 140.375 461.205 139.95 460.965 139.41C460.725 138.87 460.605 138.25 460.605 137.55C460.605 136.71 460.77 135.975 461.1 135.345C461.43 134.705 461.88 134.205 462.45 133.845C463.03 133.485 463.68 133.305 464.4 133.305C464.88 133.305 465.305 133.41 465.675 133.62C466.045 133.82 466.33 134.09 466.53 134.43L466.71 133.455H468.045ZM464.535 134.925C463.915 134.925 463.42 135.16 463.05 135.63C462.68 136.1 462.495 136.715 462.495 137.475C462.495 138.125 462.635 138.63 462.915 138.99C463.195 139.35 463.58 139.53 464.07 139.53C464.47 139.53 464.83 139.415 465.15 139.185C465.48 138.955 465.74 138.635 465.93 138.225C466.12 137.815 466.215 137.345 466.215 136.815C466.215 136.225 466.065 135.765 465.765 135.435C465.465 135.095 465.055 134.925 464.535 134.925ZM472.179 141.135C471.459 141.135 470.914 140.94 470.544 140.55C470.174 140.16 469.989 139.605 469.989 138.885V129.9H471.819V138.735C471.819 139.275 472.069 139.545 472.569 139.545C472.819 139.545 473.039 139.485 473.229 139.365L473.679 140.7C473.519 140.82 473.304 140.92 473.034 141C472.764 141.09 472.479 141.135 472.179 141.135ZM476.485 141.135C475.765 141.135 475.22 140.94 474.85 140.55C474.48 140.16 474.295 139.605 474.295 138.885V129.9H476.125V138.735C476.125 139.275 476.375 139.545 476.875 139.545C477.125 139.545 477.345 139.485 477.535 139.365L477.985 140.7C477.825 140.82 477.61 140.92 477.34 141C477.07 141.09 476.785 141.135 476.485 141.135ZM489.523 130.35H491.458L491.473 136.02C491.483 137.08 491.308 137.995 490.948 138.765C490.598 139.525 490.083 140.11 489.403 140.52C488.733 140.93 487.923 141.135 486.973 141.135C485.453 141.135 484.308 140.755 483.538 139.995C482.778 139.225 482.398 138.055 482.398 136.485V130.35H484.348V136.335C484.348 137.405 484.563 138.18 484.993 138.66C485.433 139.14 486.083 139.38 486.943 139.38C487.813 139.38 488.463 139.1 488.893 138.54C489.333 137.98 489.548 137.11 489.538 135.93L489.523 130.35ZM496.154 141.135C495.114 141.135 494.319 140.94 493.769 140.55C493.219 140.15 492.899 139.595 492.809 138.885L494.354 138.51C494.414 138.89 494.589 139.185 494.879 139.395C495.169 139.595 495.584 139.695 496.124 139.695C496.564 139.695 496.894 139.625 497.114 139.485C497.344 139.345 497.459 139.155 497.459 138.915C497.459 138.675 497.334 138.49 497.084 138.36C496.844 138.23 496.469 138.115 495.959 138.015C495.389 137.905 494.899 137.765 494.489 137.595C494.089 137.425 493.779 137.195 493.559 136.905C493.349 136.605 493.244 136.215 493.244 135.735C493.244 135.275 493.374 134.865 493.634 134.505C493.894 134.135 494.249 133.845 494.699 133.635C495.159 133.415 495.684 133.305 496.274 133.305C497.064 133.305 497.709 133.49 498.209 133.86C498.719 134.23 499.024 134.705 499.124 135.285L497.609 135.69C497.539 135.4 497.389 135.175 497.159 135.015C496.929 134.845 496.619 134.76 496.229 134.76C495.839 134.76 495.539 134.84 495.329 135C495.129 135.16 495.029 135.36 495.029 135.6C495.029 135.84 495.144 136.03 495.374 136.17C495.614 136.3 496.019 136.425 496.589 136.545C497.119 136.655 497.579 136.795 497.969 136.965C498.369 137.125 498.684 137.35 498.914 137.64C499.144 137.92 499.259 138.3 499.259 138.78C499.259 139.25 499.124 139.665 498.854 140.025C498.594 140.375 498.229 140.65 497.759 140.85C497.289 141.04 496.754 141.135 496.154 141.135ZM505.032 141.135C504.642 141.135 504.332 141.015 504.102 140.775C503.872 140.535 503.757 140.24 503.757 139.89C503.757 139.54 503.872 139.245 504.102 139.005C504.332 138.765 504.642 138.645 505.032 138.645C505.422 138.645 505.732 138.765 505.962 139.005C506.192 139.245 506.307 139.54 506.307 139.89C506.307 140.24 506.192 140.535 505.962 140.775C505.732 141.015 505.422 141.135 505.032 141.135ZM505.032 135.795C504.642 135.795 504.332 135.675 504.102 135.435C503.872 135.195 503.757 134.9 503.757 134.55C503.757 134.2 503.872 133.905 504.102 133.665C504.332 133.425 504.642 133.305 505.032 133.305C505.422 133.305 505.732 133.425 505.962 133.665C506.192 133.905 506.307 134.2 506.307 134.55C506.307 134.9 506.192 135.195 505.962 135.435C505.732 135.675 505.422 135.795 505.032 135.795ZM514.624 130.185C515.884 130.185 516.859 130.61 517.549 131.46C518.239 132.31 518.584 133.605 518.584 135.345C518.584 136.535 518.399 137.565 518.029 138.435C517.659 139.295 517.144 139.96 516.484 140.43C515.824 140.89 515.064 141.12 514.204 141.12C512.574 141.12 511.464 140.34 510.874 138.78L512.449 138.045C512.629 138.535 512.869 138.89 513.169 139.11C513.469 139.33 513.849 139.44 514.309 139.44C514.999 139.44 515.569 139.13 516.019 138.51C516.479 137.89 516.709 136.985 516.709 135.795C516.439 136.195 516.079 136.505 515.629 136.725C515.189 136.945 514.694 137.055 514.144 137.055C513.544 137.055 512.999 136.93 512.509 136.68C512.019 136.42 511.629 136.05 511.339 135.57C511.049 135.08 510.904 134.5 510.904 133.83C510.904 133.14 511.059 132.52 511.369 131.97C511.679 131.42 512.114 130.985 512.674 130.665C513.234 130.345 513.884 130.185 514.624 130.185ZM514.639 131.73C514.079 131.73 513.629 131.92 513.289 132.3C512.959 132.67 512.794 133.125 512.794 133.665C512.794 134.225 512.949 134.675 513.259 135.015C513.579 135.345 514.019 135.51 514.579 135.51C515.129 135.51 515.579 135.33 515.929 134.97C516.289 134.6 516.469 134.14 516.469 133.59C516.469 132.99 516.299 132.53 515.959 132.21C515.619 131.89 515.179 131.73 514.639 131.73ZM524.773 141V138.255H520.018V136.95L525.298 130.32H526.603V136.74H528.103V138.255H526.603V141H524.773ZM521.983 136.74H524.773V133.215L521.983 136.74ZM532.612 130.185C533.872 130.185 534.847 130.61 535.537 131.46C536.227 132.31 536.572 133.605 536.572 135.345C536.572 136.535 536.387 137.565 536.017 138.435C535.647 139.295 535.132 139.96 534.472 140.43C533.812 140.89 533.052 141.12 532.192 141.12C530.562 141.12 529.452 140.34 528.862 138.78L530.437 138.045C530.617 138.535 530.857 138.89 531.157 139.11C531.457 139.33 531.837 139.44 532.297 139.44C532.987 139.44 533.557 139.13 534.007 138.51C534.467 137.89 534.697 136.985 534.697 135.795C534.427 136.195 534.067 136.505 533.617 136.725C533.177 136.945 532.682 137.055 532.132 137.055C531.532 137.055 530.987 136.93 530.497 136.68C530.007 136.42 529.617 136.05 529.327 135.57C529.037 135.08 528.892 134.5 528.892 133.83C528.892 133.14 529.047 132.52 529.357 131.97C529.667 131.42 530.102 130.985 530.662 130.665C531.222 130.345 531.872 130.185 532.612 130.185ZM532.627 131.73C532.067 131.73 531.617 131.92 531.277 132.3C530.947 132.67 530.782 133.125 530.782 133.665C530.782 134.225 530.937 134.675 531.247 135.015C531.567 135.345 532.007 135.51 532.567 135.51C533.117 135.51 533.567 135.33 533.917 134.97C534.277 134.6 534.457 134.14 534.457 133.59C534.457 132.99 534.287 132.53 533.947 132.21C533.607 131.89 533.167 131.73 532.627 131.73ZM538.337 137.985V136.335H542.822V137.985H538.337ZM548.221 141.135C547.011 141.135 546.056 140.87 545.356 140.34C544.656 139.81 544.306 139.09 544.306 138.18C544.306 137.59 544.486 137.06 544.846 136.59C545.206 136.12 545.676 135.78 546.256 135.57C545.736 135.36 545.326 135.045 545.026 134.625C544.726 134.205 544.576 133.715 544.576 133.155C544.576 132.595 544.731 132.09 545.041 131.64C545.361 131.19 545.796 130.84 546.346 130.59C546.896 130.33 547.521 130.2 548.221 130.2C548.921 130.2 549.546 130.33 550.096 130.59C550.646 130.84 551.076 131.19 551.386 131.64C551.706 132.09 551.866 132.595 551.866 133.155C551.866 133.715 551.716 134.205 551.416 134.625C551.116 135.045 550.706 135.36 550.186 135.57C550.766 135.78 551.236 136.12 551.596 136.59C551.956 137.06 552.136 137.59 552.136 138.18C552.136 139.09 551.786 139.81 551.086 140.34C550.386 140.87 549.431 141.135 548.221 141.135ZM548.221 134.88C548.751 134.88 549.176 134.74 549.496 134.46C549.816 134.18 549.976 133.81 549.976 133.35C549.976 132.86 549.816 132.47 549.496 132.18C549.176 131.89 548.751 131.745 548.221 131.745C547.701 131.745 547.276 131.895 546.946 132.195C546.626 132.485 546.466 132.87 546.466 133.35C546.466 133.81 546.626 134.18 546.946 134.46C547.266 134.74 547.691 134.88 548.221 134.88ZM548.221 139.59C548.851 139.59 549.346 139.45 549.706 139.17C550.066 138.89 550.246 138.505 550.246 138.015C550.246 137.515 550.061 137.115 549.691 136.815C549.321 136.505 548.831 136.35 548.221 136.35C547.611 136.35 547.121 136.505 546.751 136.815C546.381 137.115 546.196 137.515 546.196 138.015C546.196 138.505 546.376 138.89 546.736 139.17C547.096 139.45 547.591 139.59 548.221 139.59ZM556.585 141.135C556.065 141.135 555.53 141.075 554.98 140.955C554.43 140.835 553.985 140.655 553.645 140.415L554.125 138.78C554.455 138.99 554.835 139.155 555.265 139.275C555.695 139.395 556.175 139.455 556.705 139.455C557.385 139.455 557.91 139.32 558.28 139.05C558.66 138.77 558.85 138.38 558.85 137.88C558.85 137.37 558.66 136.99 558.28 136.74C557.91 136.49 557.4 136.365 556.75 136.365H556.105V134.835H556.585C557.285 134.835 557.8 134.69 558.13 134.4C558.47 134.1 558.64 133.71 558.64 133.23C558.64 132.83 558.5 132.505 558.22 132.255C557.95 132.005 557.56 131.88 557.05 131.88C556.52 131.88 556.075 132.03 555.715 132.33C555.355 132.63 555.085 133.05 554.905 133.59L553.51 132.855C553.75 132.075 554.2 131.44 554.86 130.95C555.52 130.45 556.31 130.2 557.23 130.2C557.91 130.2 558.495 130.32 558.985 130.56C559.475 130.8 559.85 131.135 560.11 131.565C560.38 131.995 560.515 132.49 560.515 133.05C560.515 133.59 560.37 134.085 560.08 134.535C559.79 134.975 559.37 135.3 558.82 135.51C559.43 135.68 559.9 135.975 560.23 136.395C560.57 136.805 560.74 137.325 560.74 137.955C560.74 138.585 560.57 139.14 560.23 139.62C559.89 140.1 559.41 140.475 558.79 140.745C558.17 141.005 557.435 141.135 556.585 141.135ZM565.579 141.135C565.059 141.135 564.524 141.075 563.974 140.955C563.424 140.835 562.979 140.655 562.639 140.415L563.119 138.78C563.449 138.99 563.829 139.155 564.259 139.275C564.689 139.395 565.169 139.455 565.699 139.455C566.379 139.455 566.904 139.32 567.274 139.05C567.654 138.77 567.844 138.38 567.844 137.88C567.844 137.37 567.654 136.99 567.274 136.74C566.904 136.49 566.394 136.365 565.744 136.365H565.099V134.835H565.579C566.279 134.835 566.794 134.69 567.124 134.4C567.464 134.1 567.634 133.71 567.634 133.23C567.634 132.83 567.494 132.505 567.214 132.255C566.944 132.005 566.554 131.88 566.044 131.88C565.514 131.88 565.069 132.03 564.709 132.33C564.349 132.63 564.079 133.05 563.899 133.59L562.504 132.855C562.744 132.075 563.194 131.44 563.854 130.95C564.514 130.45 565.304 130.2 566.224 130.2C566.904 130.2 567.489 130.32 567.979 130.56C568.469 130.8 568.844 131.135 569.104 131.565C569.374 131.995 569.509 132.49 569.509 133.05C569.509 133.59 569.364 134.085 569.074 134.535C568.784 134.975 568.364 135.3 567.814 135.51C568.424 135.68 568.894 135.975 569.224 136.395C569.564 136.805 569.734 137.325 569.734 137.955C569.734 138.585 569.564 139.14 569.224 139.62C568.884 140.1 568.404 140.475 567.784 140.745C567.164 141.005 566.429 141.135 565.579 141.135ZM571.603 137.985V136.335H576.088V137.985H571.603ZM580.692 141H578.712L583.137 131.88H578.067V130.35H585.102V131.835L580.692 141ZM591.306 141V138.255H586.551V136.95L591.831 130.32H593.136V136.74H594.636V138.255H593.136V141H591.306ZM588.516 136.74H591.306V133.215L588.516 136.74ZM598.846 141.135C598.326 141.135 597.791 141.075 597.241 140.955C596.691 140.835 596.246 140.655 595.906 140.415L596.386 138.78C596.716 138.99 597.096 139.155 597.526 139.275C597.956 139.395 598.436 139.455 598.966 139.455C599.646 139.455 600.171 139.32 600.541 139.05C600.921 138.77 601.111 138.38 601.111 137.88C601.111 137.37 600.921 136.99 600.541 136.74C600.171 136.49 599.661 136.365 599.011 136.365H598.366V134.835H598.846C599.546 134.835 600.061 134.69 600.391 134.4C600.731 134.1 600.901 133.71 600.901 133.23C600.901 132.83 600.761 132.505 600.481 132.255C600.211 132.005 599.821 131.88 599.311 131.88C598.781 131.88 598.336 132.03 597.976 132.33C597.616 132.63 597.346 133.05 597.166 133.59L595.771 132.855C596.011 132.075 596.461 131.44 597.121 130.95C597.781 130.45 598.571 130.2 599.491 130.2C600.171 130.2 600.756 130.32 601.246 130.56C601.736 130.8 602.111 131.135 602.371 131.565C602.641 131.995 602.776 132.49 602.776 133.05C602.776 133.59 602.631 134.085 602.341 134.535C602.051 134.975 601.631 135.3 601.081 135.51C601.691 135.68 602.161 135.975 602.491 136.395C602.831 136.805 603.001 137.325 603.001 137.955C603.001 138.585 602.831 139.14 602.491 139.62C602.151 140.1 601.671 140.475 601.051 140.745C600.431 141.005 599.696 141.135 598.846 141.135ZM605.125 141V139.725C606.295 138.835 607.225 138.015 607.915 137.265C608.615 136.505 609.115 135.81 609.415 135.18C609.725 134.55 609.88 133.98 609.88 133.47C609.88 132.97 609.735 132.58 609.445 132.3C609.165 132.02 608.785 131.88 608.305 131.88C607.765 131.88 607.315 132.03 606.955 132.33C606.605 132.63 606.34 133.05 606.16 133.59L604.765 132.855C605.005 132.075 605.455 131.44 606.115 130.95C606.775 130.45 607.565 130.2 608.485 130.2C609.145 130.2 609.72 130.325 610.21 130.575C610.7 130.825 611.08 131.18 611.35 131.64C611.63 132.1 611.77 132.645 611.77 133.275C611.77 134.245 611.45 135.235 610.81 136.245C610.17 137.255 609.085 138.33 607.555 139.47H612.04V141H605.125Z" fill="white"/>
<path fill-rule="evenodd" clip-rule="evenodd" d="M233.317 77.5312V61.2143H237.7V56.192H233.317V48H227.147V56.192H223.354V61.2143H227.147V77.5312H233.317ZM171.214 66.2366V77.5312H165V56.192H171.214V59.2946C171.722 58.1935 172.449 57.3229 173.394 56.683C174.411 56.0729 175.501 55.7679 176.664 55.7679C179.964 55.7679 182.195 57.0179 183.358 59.5179C184.884 56.9881 186.955 55.7232 189.571 55.7232C192.188 55.7232 194.186 56.564 195.567 58.2455C196.948 59.9271 197.638 62.3155 197.638 65.4107V77.5312H191.49V66.1473C191.49 64.8378 191.177 63.8036 190.552 63.0446C189.898 62.2857 189.041 61.9062 187.98 61.9062C186.919 61.9062 186.068 62.2634 185.429 62.9777C184.789 63.692 184.469 64.7783 184.469 66.2366V77.5312H178.256V66.0134C178.198 64.7336 177.856 63.7292 177.231 63C176.592 62.2708 175.763 61.9062 174.746 61.9062C173.728 61.9062 172.885 62.256 172.217 62.9554C171.548 63.6548 171.214 64.7485 171.214 66.2366ZM222.498 56.192L209.635 88H203.072L208.087 75.3438L200.042 56.192H206.648L211.248 68.2902L215.892 56.192H222.498ZM260.292 73.6473C258.359 76.5491 255.183 77.9926 250.765 77.9777C247.698 77.9777 245.111 76.9435 243.003 74.875C240.925 72.7768 239.885 70.0833 239.885 66.7946C239.885 63.506 240.925 60.8348 243.003 58.7812C245.082 56.7277 247.654 55.7083 250.721 55.7232C253.788 55.7232 256.339 56.7649 258.374 58.8482C260.409 60.9315 261.433 63.6399 261.448 66.9732C261.448 67.003 261.419 67.6577 261.361 68.9375H246.077C246.193 70.0685 246.76 70.9464 247.778 71.5714C248.795 72.1964 249.943 72.5089 251.222 72.5089C253.214 72.5089 254.733 71.8393 255.779 70.5L260.292 73.6473ZM255.191 64.9643H246.164C246.397 63.8036 246.978 62.8958 247.909 62.2411C248.81 61.5863 249.784 61.2738 250.83 61.3036C251.877 61.3333 252.829 61.6607 253.686 62.2857C254.544 62.9107 255.045 63.8036 255.191 64.9643ZM278.088 77.2188C276.911 77.7247 275.785 77.9628 274.709 77.933C271.846 77.933 269.36 76.9062 267.253 74.8527C265.145 72.7991 264.091 70.128 264.091 66.8393C264.091 63.5506 265.181 60.8795 267.362 58.8259C269.542 56.7723 271.991 55.7381 274.709 55.7232C275.814 55.7232 276.947 55.9688 278.11 56.4598C279.273 56.9509 280.167 57.6503 280.792 58.558V56.192H286.94V77.5312H280.792V75.0982C280.167 76.006 279.266 76.7128 278.088 77.2188ZM275.712 71.9062C274.302 71.9062 273.088 71.4301 272.071 70.4777C271.024 69.5253 270.501 68.3199 270.501 66.8616C270.501 65.4182 271.024 64.2054 272.071 63.2232C273.205 62.256 274.447 61.7723 275.799 61.7723C277.151 61.7723 278.321 62.2485 279.309 63.2009C280.298 64.1533 280.792 65.3735 280.792 66.8616C280.792 68.3497 280.298 69.5625 279.309 70.5C278.321 71.4375 277.122 71.9062 275.712 71.9062ZM298.522 66.2366V77.5312H292.309V56.192H298.522V59.2946C299.031 58.1935 299.758 57.3229 300.703 56.683C301.72 56.0729 302.81 55.7679 303.973 55.7679C307.272 55.7679 309.504 57.0179 310.666 59.5179C312.193 56.9881 314.264 55.7232 316.88 55.7232C319.496 55.7232 321.495 56.564 322.876 58.2455C324.256 59.9271 324.947 62.3155 324.947 65.4107V77.5312H318.799V66.1473C318.799 64.8378 318.486 63.8036 317.861 63.0446C317.207 62.2857 316.35 61.9062 315.288 61.9062C314.227 61.9062 313.377 62.2634 312.738 62.9777C312.098 63.692 311.778 64.7783 311.778 66.2366V77.5312H305.565V66.0134C305.506 64.7336 305.165 63.7292 304.54 63C303.9 62.2708 303.072 61.9062 302.054 61.9062C301.037 61.9062 300.194 62.256 299.525 62.9554C298.857 63.6548 298.522 64.7485 298.522 66.2366Z" fill="white"/>
<g clip-path="url(#clip1_0_4494)">
<path d="M166.17 134V120.68H168.366L168.384 124.91L168.258 127.178C168.618 126.41 169.092 125.816 169.68 125.396C170.28 124.976 170.964 124.766 171.732 124.766C172.752 124.766 173.52 125.12 174.036 125.828C174.564 126.524 174.822 127.526 174.81 128.834L174.774 134H172.578L172.614 129.014C172.626 128.306 172.512 127.766 172.272 127.394C172.044 127.01 171.672 126.818 171.156 126.818C170.76 126.818 170.394 126.932 170.058 127.16C169.722 127.388 169.428 127.778 169.176 128.33C168.924 128.87 168.726 129.608 168.582 130.544C168.438 131.468 168.36 132.62 168.348 134H166.17ZM181.282 124.766C182.638 124.766 183.7 125.174 184.468 125.99C185.248 126.794 185.638 127.886 185.638 129.266C185.638 130.202 185.44 131.042 185.044 131.786C184.66 132.518 184.114 133.1 183.406 133.532C182.698 133.952 181.876 134.162 180.94 134.162C179.584 134.162 178.516 133.76 177.736 132.956C176.968 132.152 176.584 131.054 176.584 129.662C176.584 128.726 176.776 127.892 177.16 127.16C177.556 126.416 178.102 125.834 178.798 125.414C179.506 124.982 180.334 124.766 181.282 124.766ZM181.012 132.236C181.72 132.236 182.29 131.966 182.722 131.426C183.154 130.886 183.37 130.166 183.37 129.266C183.37 128.45 183.178 127.82 182.794 127.376C182.422 126.932 181.906 126.71 181.246 126.71C180.514 126.71 179.932 126.98 179.5 127.52C179.068 128.06 178.852 128.774 178.852 129.662C178.852 130.478 179.038 131.114 179.41 131.57C179.794 132.014 180.328 132.236 181.012 132.236ZM187.545 134V124.91H189.741L189.633 127.142C190.005 126.314 190.485 125.714 191.073 125.342C191.673 124.958 192.315 124.766 192.999 124.766C193.659 124.766 194.241 124.946 194.745 125.306C195.249 125.666 195.609 126.23 195.825 126.998C196.209 126.242 196.713 125.684 197.337 125.324C197.973 124.952 198.627 124.766 199.299 124.766C200.307 124.766 201.069 125.12 201.585 125.828C202.113 126.524 202.371 127.526 202.359 128.834L202.323 134H200.127L200.163 128.906C200.163 128.246 200.043 127.736 199.803 127.376C199.563 127.004 199.191 126.818 198.687 126.818C198.339 126.818 198.003 126.932 197.679 127.16C197.367 127.376 197.085 127.754 196.833 128.294C196.593 128.834 196.401 129.572 196.257 130.508C196.113 131.432 196.035 132.596 196.023 134H193.845V128.906C193.845 128.246 193.731 127.736 193.503 127.376C193.275 127.004 192.909 126.818 192.405 126.818C192.057 126.818 191.721 126.932 191.397 127.16C191.085 127.376 190.803 127.754 190.551 128.294C190.311 128.834 190.113 129.572 189.957 130.508C189.813 131.432 189.735 132.596 189.723 134H187.545ZM208.916 134.162C207.932 134.162 207.08 133.982 206.36 133.622C205.652 133.25 205.106 132.722 204.722 132.038C204.338 131.354 204.146 130.538 204.146 129.59C204.146 128.642 204.344 127.808 204.74 127.088C205.136 126.356 205.67 125.786 206.342 125.378C207.026 124.97 207.8 124.766 208.664 124.766C210.068 124.766 211.1 125.246 211.76 126.206C212.432 127.154 212.666 128.468 212.462 130.148H206.378C206.426 130.784 206.684 131.294 207.152 131.678C207.62 132.062 208.262 132.254 209.078 132.254C209.462 132.254 209.846 132.17 210.23 132.002C210.626 131.834 210.962 131.576 211.238 131.228L212.516 132.524C212.108 133.04 211.61 133.442 211.022 133.73C210.446 134.018 209.744 134.162 208.916 134.162ZM208.7 126.422C208.088 126.422 207.584 126.614 207.188 126.998C206.792 127.382 206.54 127.898 206.432 128.546H210.572C210.596 127.802 210.434 127.262 210.086 126.926C209.738 126.59 209.276 126.422 208.7 126.422Z" fill="white"/>
<path d="M263.666 124.946V134H261.434L261.506 132.416C261.182 132.968 260.756 133.4 260.228 133.712C259.712 134.012 259.118 134.162 258.446 134.162C257.654 134.162 256.982 133.982 256.43 133.622C255.878 133.25 255.458 132.74 255.17 132.092C254.882 131.444 254.738 130.7 254.738 129.86C254.738 128.852 254.936 127.97 255.332 127.214C255.728 126.446 256.268 125.846 256.952 125.414C257.648 124.982 258.428 124.766 259.292 124.766C259.868 124.766 260.378 124.892 260.822 125.144C261.266 125.384 261.608 125.708 261.848 126.116L262.064 124.946H263.666ZM259.454 126.71C258.71 126.71 258.116 126.992 257.672 127.556C257.228 128.12 257.006 128.858 257.006 129.77C257.006 130.55 257.174 131.156 257.51 131.588C257.846 132.02 258.308 132.236 258.896 132.236C259.376 132.236 259.808 132.098 260.192 131.822C260.588 131.546 260.9 131.162 261.128 130.67C261.356 130.178 261.47 129.614 261.47 128.978C261.47 128.27 261.29 127.718 260.93 127.322C260.57 126.914 260.078 126.71 259.454 126.71ZM265.998 134V120.68H268.194V124.91L268.122 126.566C268.446 125.99 268.866 125.546 269.382 125.234C269.91 124.922 270.516 124.766 271.2 124.766C272.004 124.766 272.682 124.952 273.234 125.324C273.786 125.696 274.206 126.206 274.494 126.854C274.782 127.502 274.926 128.24 274.926 129.068C274.926 130.076 274.728 130.964 274.332 131.732C273.936 132.5 273.39 133.1 272.694 133.532C272.01 133.952 271.236 134.162 270.372 134.162C269.784 134.162 269.268 134.042 268.824 133.802C268.38 133.55 268.044 133.22 267.816 132.812L267.6 134H265.998ZM270.192 132.236C270.948 132.236 271.548 131.948 271.992 131.372C272.436 130.796 272.658 130.052 272.658 129.14C272.658 128.372 272.49 127.778 272.154 127.358C271.818 126.926 271.356 126.71 270.768 126.71C270.276 126.71 269.838 126.848 269.454 127.124C269.07 127.388 268.764 127.766 268.536 128.258C268.308 128.738 268.194 129.296 268.194 129.932C268.194 130.64 268.374 131.204 268.734 131.624C269.094 132.032 269.58 132.236 270.192 132.236ZM281.092 124.766C282.448 124.766 283.51 125.174 284.278 125.99C285.058 126.794 285.448 127.886 285.448 129.266C285.448 130.202 285.25 131.042 284.854 131.786C284.47 132.518 283.924 133.1 283.216 133.532C282.508 133.952 281.686 134.162 280.75 134.162C279.394 134.162 278.326 133.76 277.546 132.956C276.778 132.152 276.394 131.054 276.394 129.662C276.394 128.726 276.586 127.892 276.97 127.16C277.366 126.416 277.912 125.834 278.608 125.414C279.316 124.982 280.144 124.766 281.092 124.766ZM280.822 132.236C281.53 132.236 282.1 131.966 282.532 131.426C282.964 130.886 283.18 130.166 283.18 129.266C283.18 128.45 282.988 127.82 282.604 127.376C282.232 126.932 281.716 126.71 281.056 126.71C280.324 126.71 279.742 126.98 279.31 127.52C278.878 128.06 278.662 128.774 278.662 129.662C278.662 130.478 278.848 131.114 279.22 131.57C279.604 132.014 280.138 132.236 280.822 132.236ZM290.254 134.162C289.246 134.162 288.484 133.82 287.968 133.136C287.464 132.452 287.218 131.504 287.23 130.292L287.266 124.91H289.462L289.426 130.094C289.414 130.718 289.522 131.21 289.75 131.57C289.978 131.93 290.338 132.11 290.83 132.11C291.214 132.11 291.568 131.996 291.892 131.768C292.228 131.54 292.516 131.156 292.756 130.616C292.996 130.064 293.182 129.326 293.314 128.402C293.458 127.466 293.53 126.302 293.53 124.91H295.654V134H293.44L293.566 131.93C293.206 132.662 292.738 133.22 292.162 133.604C291.598 133.976 290.962 134.162 290.254 134.162ZM301.842 134.162C300.75 134.162 299.898 133.862 299.286 133.262C298.686 132.662 298.392 131.876 298.404 130.904L298.476 126.746H296.928V124.91H298.512L298.53 123.038H300.726L300.69 124.91H303.66V126.746H300.672L300.618 130.67C300.606 131.162 300.726 131.552 300.978 131.84C301.242 132.116 301.632 132.254 302.148 132.254C302.424 132.254 302.682 132.218 302.922 132.146C303.162 132.074 303.414 131.942 303.678 131.75L304.326 133.442C304.05 133.682 303.696 133.862 303.264 133.982C302.832 134.102 302.358 134.162 301.842 134.162Z" fill="white"/>
</g>
<path d="M1193.67 48H1172.33C1171.59 48 1171 48.593 1171 49.325V70.676C1171 71.407 1171.59 72 1172.33 72H1183.82V62.706H1180.69V59.084H1183.82V56.413C1183.82 53.313 1185.71 51.625 1188.48 51.625C1189.8 51.625 1190.94 51.724 1191.27 51.768V55.008L1189.36 55.009C1187.85 55.009 1187.56 55.724 1187.56 56.772V59.085H1191.15L1190.68 62.707H1187.56V72H1193.68C1194.41 72 1195 71.407 1195 70.675V49.325C1195 48.593 1194.41 48 1193.67 48Z" fill="white"/>
<path d="M1223 48C1216.37 48 1211 53.372 1211 60C1211 65.084 1214.16 69.426 1218.63 71.174C1218.52 70.225 1218.43 68.769 1218.67 67.733C1218.89 66.796 1220.08 61.768 1220.08 61.768C1220.08 61.768 1219.72 61.049 1219.72 59.986C1219.72 58.318 1220.68 57.072 1221.89 57.072C1222.91 57.072 1223.41 57.841 1223.41 58.762C1223.41 59.791 1222.75 61.33 1222.41 62.757C1222.13 63.951 1223.01 64.926 1224.19 64.926C1226.32 64.926 1227.96 62.677 1227.96 59.431C1227.96 56.558 1225.9 54.549 1222.95 54.549C1219.53 54.549 1217.53 57.11 1217.53 59.756C1217.53 60.787 1217.93 61.894 1218.42 62.494C1218.52 62.613 1218.54 62.718 1218.51 62.839L1218.17 64.199C1218.12 64.419 1218 64.466 1217.77 64.36C1216.27 63.662 1215.34 61.471 1215.34 59.711C1215.34 55.926 1218.09 52.449 1223.27 52.449C1227.43 52.449 1230.66 55.416 1230.66 59.38C1230.66 63.516 1228.06 66.844 1224.44 66.844C1223.22 66.844 1222.08 66.213 1221.69 65.466L1220.94 68.319C1220.67 69.362 1219.94 70.669 1219.45 71.465C1220.57 71.812 1221.76 72 1223 72C1229.63 72 1235 66.627 1235 60C1235 53.372 1229.63 48 1223 48Z" fill="white"/>
<path d="M1275 52.557C1274.12 52.949 1273.17 53.213 1272.17 53.332C1273.19 52.723 1273.97 51.758 1274.34 50.608C1273.39 51.172 1272.33 51.582 1271.21 51.803C1270.31 50.846 1269.03 50.248 1267.62 50.248C1264.44 50.248 1262.1 53.214 1262.82 56.293C1258.73 56.088 1255.1 54.128 1252.67 51.149C1251.38 53.362 1252 56.257 1254.19 57.723C1253.39 57.697 1252.63 57.476 1251.96 57.107C1251.91 59.388 1253.55 61.522 1255.91 61.997C1255.22 62.185 1254.46 62.229 1253.69 62.081C1254.32 64.037 1256.13 65.46 1258.29 65.5C1256.22 67.123 1253.61 67.848 1251 67.54C1253.18 68.937 1255.77 69.752 1258.55 69.752C1267.69 69.752 1272.85 62.031 1272.54 55.106C1273.5 54.411 1274.34 53.544 1275 52.557Z" fill="white"/>
<path opacity="0.6" d="M1032.64 138.93C1032.22 139.64 1031.64 140.185 1030.9 140.565C1030.16 140.945 1029.33 141.135 1028.41 141.135C1027.32 141.135 1026.39 140.925 1025.61 140.505C1024.83 140.085 1024.23 139.485 1023.81 138.705C1023.4 137.915 1023.19 136.975 1023.19 135.885C1023.19 134.755 1023.42 133.765 1023.88 132.915C1024.34 132.065 1024.98 131.4 1025.8 130.92C1026.62 130.44 1027.57 130.2 1028.65 130.2C1029.57 130.2 1030.36 130.375 1031.01 130.725C1031.67 131.075 1032.22 131.605 1032.66 132.315L1031.16 133.395C1030.89 132.895 1030.53 132.53 1030.09 132.3C1029.65 132.07 1029.17 131.955 1028.64 131.955C1027.96 131.955 1027.36 132.12 1026.84 132.45C1026.32 132.78 1025.91 133.24 1025.61 133.83C1025.32 134.41 1025.17 135.085 1025.17 135.855C1025.17 136.965 1025.46 137.83 1026.03 138.45C1026.61 139.07 1027.41 139.38 1028.44 139.38C1029.01 139.38 1029.54 139.25 1030.02 138.99C1030.5 138.73 1030.89 138.335 1031.19 137.805L1032.64 138.93ZM1037.04 133.305C1038.17 133.305 1039.05 133.645 1039.69 134.325C1040.34 134.995 1040.67 135.905 1040.67 137.055C1040.67 137.835 1040.5 138.535 1040.17 139.155C1039.85 139.765 1039.4 140.25 1038.81 140.61C1038.22 140.96 1037.53 141.135 1036.75 141.135C1035.62 141.135 1034.73 140.8 1034.08 140.13C1033.44 139.46 1033.12 138.545 1033.12 137.385C1033.12 136.605 1033.28 135.91 1033.6 135.3C1033.93 134.68 1034.39 134.195 1034.97 133.845C1035.56 133.485 1036.25 133.305 1037.04 133.305ZM1036.81 139.53C1037.4 139.53 1037.88 139.305 1038.24 138.855C1038.6 138.405 1038.78 137.805 1038.78 137.055C1038.78 136.375 1038.62 135.85 1038.3 135.48C1037.99 135.11 1037.56 134.925 1037.01 134.925C1036.4 134.925 1035.91 135.15 1035.55 135.6C1035.19 136.05 1035.01 136.645 1035.01 137.385C1035.01 138.065 1035.17 138.595 1035.48 138.975C1035.8 139.345 1036.24 139.53 1036.81 139.53ZM1042.26 144V133.425H1044.1L1044.04 134.775C1044.31 134.305 1044.66 133.945 1045.09 133.695C1045.52 133.435 1046.02 133.305 1046.59 133.305C1047.26 133.305 1047.83 133.46 1048.29 133.77C1048.75 134.08 1049.1 134.505 1049.34 135.045C1049.58 135.585 1049.7 136.2 1049.7 136.89C1049.7 137.73 1049.53 138.47 1049.2 139.11C1048.87 139.75 1048.42 140.25 1047.84 140.61C1047.27 140.96 1046.62 141.135 1045.89 141.135C1045.51 141.135 1045.16 141.07 1044.85 140.94C1044.54 140.81 1044.28 140.635 1044.07 140.415L1044.09 141V144H1042.26ZM1045.75 139.53C1046.38 139.53 1046.88 139.29 1047.25 138.81C1047.62 138.33 1047.81 137.71 1047.81 136.95C1047.81 136.31 1047.67 135.815 1047.39 135.465C1047.11 135.105 1046.72 134.925 1046.23 134.925C1045.82 134.925 1045.46 135.04 1045.14 135.27C1044.82 135.49 1044.56 135.805 1044.37 136.215C1044.18 136.615 1044.09 137.08 1044.09 137.61C1044.09 138.2 1044.24 138.67 1044.54 139.02C1044.84 139.36 1045.24 139.53 1045.75 139.53ZM1053.94 144.15C1053.49 144.15 1053.01 144.105 1052.5 144.015C1052 143.925 1051.58 143.775 1051.25 143.565L1051.7 141.975C1052.04 142.145 1052.4 142.28 1052.78 142.38C1053.16 142.48 1053.58 142.53 1054.03 142.53C1054.91 142.53 1055.53 142.32 1055.9 141.9C1056.27 141.49 1056.48 140.83 1056.52 139.92L1056.58 138.93C1056.28 139.57 1055.88 140.06 1055.38 140.4C1054.89 140.73 1054.34 140.895 1053.73 140.895C1052.88 140.895 1052.24 140.61 1051.81 140.04C1051.38 139.47 1051.17 138.68 1051.18 137.67L1051.21 133.425H1053.04L1053.01 137.52C1053.01 138.04 1053.1 138.45 1053.28 138.75C1053.47 139.04 1053.77 139.185 1054.19 139.185C1054.65 139.185 1055.05 139.01 1055.39 138.66C1055.73 138.3 1056 137.705 1056.19 136.875C1056.39 136.035 1056.49 134.885 1056.5 133.425H1058.27V139.695C1058.27 141.215 1057.89 142.335 1057.13 143.055C1056.37 143.785 1055.31 144.15 1053.94 144.15ZM1065.08 135.195C1064.88 135.125 1064.62 135.09 1064.31 135.09C1063.77 135.09 1063.34 135.29 1063.01 135.69C1062.68 136.08 1062.43 136.71 1062.27 137.58C1062.12 138.44 1062.05 139.58 1062.05 141H1060.23V136.11L1060.22 133.425H1062.05L1061.96 135.54C1062.22 134.73 1062.58 134.155 1063.04 133.815C1063.51 133.475 1064.01 133.305 1064.54 133.305C1064.7 133.305 1064.85 133.315 1064.99 133.335C1065.13 133.355 1065.26 133.385 1065.38 133.425L1065.08 135.195ZM1068.17 133.425V141H1066.34V133.425H1068.17ZM1067.26 132.225C1066.9 132.225 1066.61 132.115 1066.4 131.895C1066.19 131.675 1066.09 131.41 1066.09 131.1C1066.09 130.79 1066.19 130.525 1066.4 130.305C1066.61 130.085 1066.9 129.975 1067.26 129.975C1067.62 129.975 1067.9 130.085 1068.11 130.305C1068.32 130.525 1068.43 130.79 1068.43 131.1C1068.43 131.41 1068.32 131.675 1068.11 131.895C1067.9 132.115 1067.62 132.225 1067.26 132.225ZM1072.85 144.15C1072.41 144.15 1071.94 144.105 1071.43 144.015C1070.93 143.925 1070.51 143.775 1070.18 143.565L1070.63 141.975C1070.96 142.145 1071.32 142.28 1071.7 142.38C1072.09 142.48 1072.5 142.53 1072.94 142.53C1073.83 142.53 1074.46 142.32 1074.83 141.9C1075.2 141.48 1075.41 140.82 1075.45 139.92L1075.48 139.455C1075.2 139.925 1074.84 140.285 1074.41 140.535C1073.99 140.775 1073.5 140.895 1072.93 140.895C1072.25 140.895 1071.67 140.75 1071.19 140.46C1070.72 140.17 1070.36 139.765 1070.12 139.245C1069.88 138.725 1069.76 138.13 1069.76 137.46C1069.76 136.65 1069.92 135.935 1070.24 135.315C1070.57 134.685 1071.02 134.195 1071.59 133.845C1072.17 133.485 1072.84 133.305 1073.59 133.305C1074.09 133.305 1074.52 133.41 1074.89 133.62C1075.26 133.82 1075.55 134.09 1075.75 134.43L1075.93 133.455H1077.26V139.695C1077.26 141.185 1076.87 142.3 1076.09 143.04C1075.31 143.78 1074.23 144.15 1072.85 144.15ZM1073.72 134.925C1073.09 134.925 1072.59 135.15 1072.21 135.6C1071.84 136.05 1071.65 136.63 1071.65 137.34C1071.65 137.96 1071.8 138.44 1072.09 138.78C1072.38 139.12 1072.77 139.29 1073.27 139.29C1073.68 139.29 1074.05 139.18 1074.37 138.96C1074.7 138.73 1074.96 138.42 1075.15 138.03C1075.34 137.64 1075.43 137.2 1075.43 136.71C1075.43 136.15 1075.28 135.715 1074.97 135.405C1074.66 135.085 1074.24 134.925 1073.72 134.925ZM1079.22 141V129.9H1081.05L1081.06 133.425L1080.96 135.315C1081.26 134.675 1081.65 134.18 1082.14 133.83C1082.64 133.48 1083.21 133.305 1083.85 133.305C1084.7 133.305 1085.34 133.6 1085.77 134.19C1086.21 134.77 1086.43 135.605 1086.42 136.695L1086.39 141H1084.56L1084.59 136.845C1084.6 136.255 1084.5 135.805 1084.3 135.495C1084.11 135.175 1083.8 135.015 1083.37 135.015C1083.04 135.015 1082.74 135.11 1082.46 135.3C1082.18 135.49 1081.93 135.815 1081.72 136.275C1081.51 136.725 1081.35 137.34 1081.23 138.12C1081.11 138.89 1081.04 139.85 1081.03 141H1079.22ZM1091.47 141.135C1090.56 141.135 1089.85 140.885 1089.34 140.385C1088.84 139.885 1088.59 139.23 1088.6 138.42L1088.66 134.955H1087.37V133.425H1088.69L1088.71 131.865H1090.54L1090.51 133.425H1092.98V134.955H1090.49L1090.45 138.225C1090.44 138.635 1090.54 138.96 1090.75 139.2C1090.97 139.43 1091.29 139.545 1091.72 139.545C1091.95 139.545 1092.17 139.515 1092.37 139.455C1092.57 139.395 1092.78 139.285 1093 139.125L1093.54 140.535C1093.31 140.735 1093.01 140.885 1092.65 140.985C1092.29 141.085 1091.9 141.135 1091.47 141.135ZM1098.16 141V139.725C1099.33 138.835 1100.26 138.015 1100.95 137.265C1101.65 136.505 1102.15 135.81 1102.45 135.18C1102.76 134.55 1102.92 133.98 1102.92 133.47C1102.92 132.97 1102.77 132.58 1102.48 132.3C1102.2 132.02 1101.82 131.88 1101.34 131.88C1100.8 131.88 1100.35 132.03 1099.99 132.33C1099.64 132.63 1099.38 133.05 1099.2 133.59L1097.8 132.855C1098.04 132.075 1098.49 131.44 1099.15 130.95C1099.81 130.45 1100.6 130.2 1101.52 130.2C1102.18 130.2 1102.76 130.325 1103.25 130.575C1103.74 130.825 1104.12 131.18 1104.39 131.64C1104.67 132.1 1104.81 132.645 1104.81 133.275C1104.81 134.245 1104.49 135.235 1103.85 136.245C1103.21 137.255 1102.12 138.33 1100.59 139.47H1105.08V141H1098.16ZM1110.52 141.135C1109.26 141.145 1108.29 140.72 1107.62 139.86C1106.95 138.99 1106.62 137.66 1106.62 135.87C1106.62 134.74 1106.78 133.75 1107.11 132.9C1107.44 132.05 1107.91 131.39 1108.51 130.92C1109.12 130.44 1109.84 130.2 1110.68 130.2C1111.84 130.2 1112.75 130.65 1113.4 131.55C1114.06 132.45 1114.39 133.755 1114.39 135.465C1114.39 136.595 1114.23 137.585 1113.91 138.435C1113.6 139.285 1113.15 139.95 1112.57 140.43C1111.99 140.9 1111.31 141.135 1110.52 141.135ZM1110.47 139.47C1111.11 139.47 1111.61 139.13 1111.96 138.45C1112.32 137.77 1112.5 136.775 1112.5 135.465C1112.5 134.285 1112.34 133.39 1112.02 132.78C1111.7 132.16 1111.24 131.85 1110.64 131.85C1109.98 131.85 1109.46 132.2 1109.08 132.9C1108.71 133.6 1108.52 134.58 1108.52 135.84C1108.52 137.07 1108.68 137.985 1109 138.585C1109.33 139.175 1109.82 139.47 1110.47 139.47ZM1116.15 141V139.725C1117.32 138.835 1118.25 138.015 1118.94 137.265C1119.64 136.505 1120.14 135.81 1120.44 135.18C1120.75 134.55 1120.91 133.98 1120.91 133.47C1120.91 132.97 1120.76 132.58 1120.47 132.3C1120.19 132.02 1119.81 131.88 1119.33 131.88C1118.79 131.88 1118.34 132.03 1117.98 132.33C1117.63 132.63 1117.37 133.05 1117.19 133.59L1115.79 132.855C1116.03 132.075 1116.48 131.44 1117.14 130.95C1117.8 130.45 1118.59 130.2 1119.51 130.2C1120.17 130.2 1120.75 130.325 1121.24 130.575C1121.73 130.825 1122.11 131.18 1122.38 131.64C1122.66 132.1 1122.8 132.645 1122.8 133.275C1122.8 134.245 1122.48 135.235 1121.84 136.245C1121.2 137.255 1120.11 138.33 1118.58 139.47H1123.07V141H1116.15ZM1128.5 141.135C1127.24 141.145 1126.28 140.72 1125.61 139.86C1124.94 138.99 1124.6 137.66 1124.6 135.87C1124.6 134.74 1124.77 133.75 1125.1 132.9C1125.43 132.05 1125.89 131.39 1126.49 130.92C1127.1 130.44 1127.83 130.2 1128.67 130.2C1129.83 130.2 1130.73 130.65 1131.38 131.55C1132.04 132.45 1132.37 133.755 1132.37 135.465C1132.37 136.595 1132.21 137.585 1131.89 138.435C1131.58 139.285 1131.14 139.95 1130.56 140.43C1129.98 140.9 1129.29 141.135 1128.5 141.135ZM1128.46 139.47C1129.1 139.47 1129.59 139.13 1129.94 138.45C1130.3 137.77 1130.48 136.775 1130.48 135.465C1130.48 134.285 1130.32 133.39 1130 132.78C1129.68 132.16 1129.22 131.85 1128.62 131.85C1127.96 131.85 1127.44 132.2 1127.06 132.9C1126.69 133.6 1126.51 134.58 1126.51 135.84C1126.51 137.07 1126.67 137.985 1126.99 138.585C1127.32 139.175 1127.81 139.47 1128.46 139.47ZM1134.77 141.135C1134.38 141.135 1134.07 141.015 1133.84 140.775C1133.61 140.535 1133.49 140.24 1133.49 139.89C1133.49 139.54 1133.61 139.245 1133.84 139.005C1134.07 138.765 1134.38 138.645 1134.77 138.645C1135.16 138.645 1135.47 138.765 1135.7 139.005C1135.93 139.245 1136.04 139.54 1136.04 139.89C1136.04 140.24 1135.93 140.535 1135.7 140.775C1135.47 141.015 1135.16 141.135 1134.77 141.135ZM1140.04 141L1144.59 130.35H1146.24L1150.6 141H1148.62L1147.66 138.57H1143.01L1142.02 141H1140.04ZM1143.69 136.935H1147.03L1145.38 132.75L1143.69 136.935ZM1153.68 141.135C1152.96 141.135 1152.42 140.94 1152.05 140.55C1151.68 140.16 1151.49 139.605 1151.49 138.885V129.9H1153.32V138.735C1153.32 139.275 1153.57 139.545 1154.07 139.545C1154.32 139.545 1154.54 139.485 1154.73 139.365L1155.18 140.7C1155.02 140.82 1154.81 140.92 1154.54 141C1154.27 141.09 1153.98 141.135 1153.68 141.135ZM1157.99 141.135C1157.27 141.135 1156.72 140.94 1156.35 140.55C1155.98 140.16 1155.8 139.605 1155.8 138.885V129.9H1157.63V138.735C1157.63 139.275 1157.88 139.545 1158.38 139.545C1158.63 139.545 1158.85 139.485 1159.04 139.365L1159.49 140.7C1159.33 140.82 1159.11 140.92 1158.84 141C1158.57 141.09 1158.29 141.135 1157.99 141.135ZM1172.36 139.14L1172.81 140.655C1172.61 140.805 1172.37 140.92 1172.08 141C1171.79 141.09 1171.48 141.135 1171.16 141.135C1170.04 141.135 1169.16 140.64 1168.52 139.65L1166.98 137.28C1166.82 137.03 1166.65 136.855 1166.48 136.755C1166.31 136.655 1166.13 136.605 1165.93 136.605H1165.85V141H1163.95V130.35H1167.26C1168.61 130.35 1169.63 130.63 1170.32 131.19C1171.02 131.75 1171.37 132.52 1171.37 133.5C1171.37 134.09 1171.24 134.6 1170.98 135.03C1170.72 135.45 1170.37 135.785 1169.92 136.035C1169.47 136.285 1168.96 136.445 1168.39 136.515C1168.69 136.675 1168.96 136.945 1169.21 137.325L1170.05 138.57C1170.27 138.89 1170.48 139.11 1170.67 139.23C1170.87 139.35 1171.12 139.41 1171.42 139.41C1171.77 139.41 1172.08 139.32 1172.36 139.14ZM1167.13 131.94H1165.85V135.075H1167.04C1167.86 135.075 1168.46 134.95 1168.85 134.7C1169.24 134.45 1169.44 134.05 1169.44 133.5C1169.44 132.46 1168.67 131.94 1167.13 131.94ZM1175.06 133.425V141H1173.23V133.425H1175.06ZM1174.15 132.225C1173.79 132.225 1173.5 132.115 1173.29 131.895C1173.08 131.675 1172.98 131.41 1172.98 131.1C1172.98 130.79 1173.08 130.525 1173.29 130.305C1173.5 130.085 1173.79 129.975 1174.15 129.975C1174.51 129.975 1174.79 130.085 1175 130.305C1175.21 130.525 1175.32 130.79 1175.32 131.1C1175.32 131.41 1175.21 131.675 1175 131.895C1174.79 132.115 1174.51 132.225 1174.15 132.225ZM1179.74 144.15C1179.3 144.15 1178.83 144.105 1178.32 144.015C1177.82 143.925 1177.4 143.775 1177.07 143.565L1177.52 141.975C1177.85 142.145 1178.21 142.28 1178.59 142.38C1178.98 142.48 1179.39 142.53 1179.83 142.53C1180.72 142.53 1181.35 142.32 1181.72 141.9C1182.09 141.48 1182.3 140.82 1182.34 139.92L1182.37 139.455C1182.09 139.925 1181.73 140.285 1181.3 140.535C1180.88 140.775 1180.39 140.895 1179.82 140.895C1179.14 140.895 1178.56 140.75 1178.08 140.46C1177.61 140.17 1177.25 139.765 1177.01 139.245C1176.77 138.725 1176.65 138.13 1176.65 137.46C1176.65 136.65 1176.81 135.935 1177.13 135.315C1177.46 134.685 1177.91 134.195 1178.48 133.845C1179.06 133.485 1179.73 133.305 1180.48 133.305C1180.98 133.305 1181.41 133.41 1181.78 133.62C1182.15 133.82 1182.44 134.09 1182.64 134.43L1182.82 133.455H1184.15V139.695C1184.15 141.185 1183.76 142.3 1182.98 143.04C1182.2 143.78 1181.12 144.15 1179.74 144.15ZM1180.61 134.925C1179.98 134.925 1179.48 135.15 1179.1 135.6C1178.73 136.05 1178.54 136.63 1178.54 137.34C1178.54 137.96 1178.69 138.44 1178.98 138.78C1179.27 139.12 1179.66 139.29 1180.16 139.29C1180.57 139.29 1180.94 139.18 1181.26 138.96C1181.59 138.73 1181.85 138.42 1182.04 138.03C1182.23 137.64 1182.32 137.2 1182.32 136.71C1182.32 136.15 1182.17 135.715 1181.86 135.405C1181.55 135.085 1181.13 134.925 1180.61 134.925ZM1186.11 141V129.9H1187.94L1187.95 133.425L1187.85 135.315C1188.15 134.675 1188.54 134.18 1189.03 133.83C1189.53 133.48 1190.1 133.305 1190.74 133.305C1191.59 133.305 1192.23 133.6 1192.66 134.19C1193.1 134.77 1193.32 135.605 1193.31 136.695L1193.28 141H1191.45L1191.48 136.845C1191.49 136.255 1191.39 135.805 1191.19 135.495C1191 135.175 1190.69 135.015 1190.26 135.015C1189.93 135.015 1189.63 135.11 1189.35 135.3C1189.07 135.49 1188.82 135.815 1188.61 136.275C1188.4 136.725 1188.24 137.34 1188.12 138.12C1188 138.89 1187.93 139.85 1187.92 141H1186.11ZM1198.35 141.135C1197.44 141.135 1196.73 140.885 1196.22 140.385C1195.72 139.885 1195.48 139.23 1195.49 138.42L1195.55 134.955H1194.26V133.425H1195.58L1195.59 131.865H1197.42L1197.39 133.425H1199.87V134.955H1197.38L1197.33 138.225C1197.32 138.635 1197.42 138.96 1197.63 139.2C1197.85 139.43 1198.18 139.545 1198.61 139.545C1198.84 139.545 1199.05 139.515 1199.25 139.455C1199.45 139.395 1199.66 139.285 1199.88 139.125L1200.42 140.535C1200.19 140.735 1199.9 140.885 1199.54 140.985C1199.18 141.085 1198.78 141.135 1198.35 141.135ZM1203.88 141.135C1202.84 141.135 1202.04 140.94 1201.49 140.55C1200.94 140.15 1200.62 139.595 1200.53 138.885L1202.08 138.51C1202.14 138.89 1202.31 139.185 1202.6 139.395C1202.89 139.595 1203.31 139.695 1203.85 139.695C1204.29 139.695 1204.62 139.625 1204.84 139.485C1205.07 139.345 1205.18 139.155 1205.18 138.915C1205.18 138.675 1205.06 138.49 1204.81 138.36C1204.57 138.23 1204.19 138.115 1203.68 138.015C1203.11 137.905 1202.62 137.765 1202.21 137.595C1201.81 137.425 1201.5 137.195 1201.28 136.905C1201.07 136.605 1200.97 136.215 1200.97 135.735C1200.97 135.275 1201.1 134.865 1201.36 134.505C1201.62 134.135 1201.97 133.845 1202.42 133.635C1202.88 133.415 1203.41 133.305 1204 133.305C1204.79 133.305 1205.43 133.49 1205.93 133.86C1206.44 134.23 1206.75 134.705 1206.85 135.285L1205.33 135.69C1205.26 135.4 1205.11 135.175 1204.88 135.015C1204.65 134.845 1204.34 134.76 1203.95 134.76C1203.56 134.76 1203.26 134.84 1203.05 135C1202.85 135.16 1202.75 135.36 1202.75 135.6C1202.75 135.84 1202.87 136.03 1203.1 136.17C1203.34 136.3 1203.74 136.425 1204.31 136.545C1204.84 136.655 1205.3 136.795 1205.69 136.965C1206.09 137.125 1206.41 137.35 1206.64 137.64C1206.87 137.92 1206.98 138.3 1206.98 138.78C1206.98 139.25 1206.85 139.665 1206.58 140.025C1206.32 140.375 1205.95 140.65 1205.48 140.85C1205.01 141.04 1204.48 141.135 1203.88 141.135ZM1220.48 139.14L1220.93 140.655C1220.73 140.805 1220.49 140.92 1220.2 141C1219.91 141.09 1219.6 141.135 1219.28 141.135C1218.16 141.135 1217.28 140.64 1216.64 139.65L1215.1 137.28C1214.94 137.03 1214.77 136.855 1214.6 136.755C1214.43 136.655 1214.25 136.605 1214.05 136.605H1213.97V141H1212.07V130.35H1215.38C1216.73 130.35 1217.75 130.63 1218.44 131.19C1219.14 131.75 1219.49 132.52 1219.49 133.5C1219.49 134.09 1219.36 134.6 1219.1 135.03C1218.84 135.45 1218.49 135.785 1218.04 136.035C1217.59 136.285 1217.08 136.445 1216.51 136.515C1216.81 136.675 1217.08 136.945 1217.33 137.325L1218.17 138.57C1218.39 138.89 1218.6 139.11 1218.79 139.23C1218.99 139.35 1219.24 139.41 1219.54 139.41C1219.89 139.41 1220.2 139.32 1220.48 139.14ZM1215.25 131.94H1213.97V135.075H1215.16C1215.98 135.075 1216.58 134.95 1216.97 134.7C1217.36 134.45 1217.56 134.05 1217.56 133.5C1217.56 132.46 1216.79 131.94 1215.25 131.94ZM1224.89 141.135C1224.07 141.135 1223.36 140.985 1222.76 140.685C1222.17 140.375 1221.72 139.935 1221.4 139.365C1221.08 138.795 1220.92 138.115 1220.92 137.325C1220.92 136.535 1221.08 135.84 1221.41 135.24C1221.74 134.63 1222.19 134.155 1222.75 133.815C1223.32 133.475 1223.96 133.305 1224.68 133.305C1225.85 133.305 1226.71 133.705 1227.26 134.505C1227.82 135.295 1228.02 136.39 1227.85 137.79H1222.78C1222.82 138.32 1223.03 138.745 1223.42 139.065C1223.81 139.385 1224.35 139.545 1225.03 139.545C1225.35 139.545 1225.67 139.475 1225.99 139.335C1226.32 139.195 1226.6 138.98 1226.83 138.69L1227.89 139.77C1227.55 140.2 1227.14 140.535 1226.65 140.775C1226.17 141.015 1225.58 141.135 1224.89 141.135ZM1224.71 134.685C1224.2 134.685 1223.78 134.845 1223.45 135.165C1223.12 135.485 1222.91 135.915 1222.82 136.455H1226.27C1226.29 135.835 1226.16 135.385 1225.87 135.105C1225.58 134.825 1225.19 134.685 1224.71 134.685ZM1232.08 141.135C1231.04 141.135 1230.24 140.94 1229.69 140.55C1229.14 140.15 1228.82 139.595 1228.73 138.885L1230.28 138.51C1230.34 138.89 1230.51 139.185 1230.8 139.395C1231.09 139.595 1231.51 139.695 1232.05 139.695C1232.49 139.695 1232.82 139.625 1233.04 139.485C1233.27 139.345 1233.38 139.155 1233.38 138.915C1233.38 138.675 1233.26 138.49 1233.01 138.36C1232.77 138.23 1232.39 138.115 1231.88 138.015C1231.31 137.905 1230.82 137.765 1230.41 137.595C1230.01 137.425 1229.7 137.195 1229.48 136.905C1229.27 136.605 1229.17 136.215 1229.17 135.735C1229.17 135.275 1229.3 134.865 1229.56 134.505C1229.82 134.135 1230.17 133.845 1230.62 133.635C1231.08 133.415 1231.61 133.305 1232.2 133.305C1232.99 133.305 1233.63 133.49 1234.13 133.86C1234.64 134.23 1234.95 134.705 1235.05 135.285L1233.53 135.69C1233.46 135.4 1233.31 135.175 1233.08 135.015C1232.85 134.845 1232.54 134.76 1232.15 134.76C1231.76 134.76 1231.46 134.84 1231.25 135C1231.05 135.16 1230.95 135.36 1230.95 135.6C1230.95 135.84 1231.07 136.03 1231.3 136.17C1231.54 136.3 1231.94 136.425 1232.51 136.545C1233.04 136.655 1233.5 136.795 1233.89 136.965C1234.29 137.125 1234.61 137.35 1234.84 137.64C1235.07 137.92 1235.18 138.3 1235.18 138.78C1235.18 139.25 1235.05 139.665 1234.78 140.025C1234.52 140.375 1234.15 140.65 1233.68 140.85C1233.21 141.04 1232.68 141.135 1232.08 141.135ZM1240.11 141.135C1239.29 141.135 1238.58 140.985 1237.98 140.685C1237.39 140.375 1236.94 139.935 1236.62 139.365C1236.3 138.795 1236.14 138.115 1236.14 137.325C1236.14 136.535 1236.3 135.84 1236.63 135.24C1236.96 134.63 1237.41 134.155 1237.97 133.815C1238.54 133.475 1239.18 133.305 1239.9 133.305C1241.07 133.305 1241.93 133.705 1242.48 134.505C1243.04 135.295 1243.24 136.39 1243.07 137.79H1238C1238.04 138.32 1238.25 138.745 1238.64 139.065C1239.03 139.385 1239.57 139.545 1240.25 139.545C1240.57 139.545 1240.89 139.475 1241.21 139.335C1241.54 139.195 1241.82 138.98 1242.05 138.69L1243.11 139.77C1242.77 140.2 1242.36 140.535 1241.87 140.775C1241.39 141.015 1240.8 141.135 1240.11 141.135ZM1239.93 134.685C1239.42 134.685 1239 134.845 1238.67 135.165C1238.34 135.485 1238.13 135.915 1238.04 136.455H1241.49C1241.51 135.835 1241.38 135.385 1241.09 135.105C1240.8 134.825 1240.41 134.685 1239.93 134.685ZM1249.5 135.195C1249.3 135.125 1249.05 135.09 1248.74 135.09C1248.2 135.09 1247.76 135.29 1247.43 135.69C1247.1 136.08 1246.86 136.71 1246.7 137.58C1246.55 138.44 1246.47 139.58 1246.47 141H1244.66V136.11L1244.64 133.425H1246.47L1246.38 135.54C1246.64 134.73 1247 134.155 1247.46 133.815C1247.93 133.475 1248.43 133.305 1248.96 133.305C1249.12 133.305 1249.27 133.315 1249.41 133.335C1249.55 133.355 1249.68 133.385 1249.8 133.425L1249.5 135.195ZM1256.4 133.425H1258.23L1255.39 141H1252.78L1250.38 133.425H1252.36L1254.19 139.515L1256.4 133.425ZM1262.42 141.135C1261.6 141.135 1260.89 140.985 1260.29 140.685C1259.7 140.375 1259.25 139.935 1258.93 139.365C1258.61 138.795 1258.45 138.115 1258.45 137.325C1258.45 136.535 1258.61 135.84 1258.94 135.24C1259.27 134.63 1259.72 134.155 1260.28 133.815C1260.85 133.475 1261.49 133.305 1262.21 133.305C1263.38 133.305 1264.24 133.705 1264.79 134.505C1265.35 135.295 1265.55 136.39 1265.38 137.79H1260.31C1260.35 138.32 1260.56 138.745 1260.95 139.065C1261.34 139.385 1261.88 139.545 1262.56 139.545C1262.88 139.545 1263.2 139.475 1263.52 139.335C1263.85 139.195 1264.13 138.98 1264.36 138.69L1265.42 139.77C1265.08 140.2 1264.67 140.535 1264.18 140.775C1263.7 141.015 1263.11 141.135 1262.42 141.135ZM1262.24 134.685C1261.73 134.685 1261.31 134.845 1260.98 135.165C1260.65 135.485 1260.44 135.915 1260.35 136.455H1263.8C1263.82 135.835 1263.69 135.385 1263.4 135.105C1263.11 134.825 1262.72 134.685 1262.24 134.685ZM1274.03 129.9V141H1272.17L1272.23 139.68C1271.96 140.15 1271.61 140.51 1271.18 140.76C1270.75 141.01 1270.25 141.135 1269.68 141.135C1269.02 141.135 1268.46 140.985 1268 140.685C1267.54 140.375 1267.19 139.95 1266.95 139.41C1266.71 138.87 1266.59 138.25 1266.59 137.55C1266.59 136.71 1266.76 135.975 1267.09 135.345C1267.42 134.705 1267.87 134.205 1268.44 133.845C1269.02 133.485 1269.67 133.305 1270.39 133.305C1270.77 133.305 1271.11 133.37 1271.42 133.5C1271.74 133.63 1272.01 133.81 1272.22 134.04L1272.2 133.425V129.9H1274.03ZM1270.52 134.925C1269.9 134.925 1269.41 135.16 1269.04 135.63C1268.67 136.1 1268.48 136.715 1268.48 137.475C1268.48 138.125 1268.62 138.63 1268.9 138.99C1269.18 139.35 1269.57 139.53 1270.06 139.53C1270.46 139.53 1270.82 139.415 1271.14 139.185C1271.47 138.955 1271.73 138.635 1271.92 138.225C1272.11 137.815 1272.2 137.345 1272.2 136.815C1272.2 136.225 1272.05 135.765 1271.75 135.435C1271.45 135.095 1271.04 134.925 1270.52 134.925Z" fill="white"/>
</g>
<defs>
<clipPath id="clip0_0_4494">
<rect width="1110" height="100" fill="white" transform="translate(165 48)"/>
</clipPath>
<clipPath id="clip1_0_4494">
<rect width="140" height="28" fill="white" transform="translate(165 113)"/>
</clipPath>
</defs>
</svg>
